<svg version="1.1" id="Layer_1" xmlns="http://www.w3.org/2000/svg" xmlns:xlink="http://www.w3.org/1999/xlink" x="0px" y="0px"
	 width="100%" viewBox="0 0 500 500" enable-background="new 0 0 500 500" xml:space="preserve">
<path fill="#FEFEFE" opacity="1.000000" stroke="none" 
	d="
M320.002319,260.932434 
	C319.982697,265.549744 320.245575,269.711517 319.768494,273.786682 
	C319.628357,274.983582 317.436859,276.779175 316.104797,276.853485 
	C310.124481,277.187134 304.114960,276.978760 298.116180,277.007568 
	C294.382233,277.025482 295.008301,274.329254 295.006622,272.067322 
	C294.992950,253.570648 295.000519,235.073975 295.001129,216.577301 
	C295.001556,203.928055 295.001190,191.278793 295.001190,177.338394 
	C311.489716,177.224243 327.819489,176.835373 344.136230,177.141357 
	C350.204254,177.255142 356.394623,178.449539 362.265503,180.093124 
	C382.688354,185.810577 389.108856,213.159378 376.965973,227.884766 
	C370.461212,235.772934 362.183990,238.794891 352.324402,241.537979 
	C363.413269,253.380630 375.188385,264.062256 385.823517,275.760376 
	C385.459076,276.167542 385.094635,276.574738 384.730164,276.981903 
	C375.914337,276.981903 367.096252,277.079834 358.284943,276.880615 
	C356.898987,276.849243 355.244232,275.754425 354.220734,274.671967 
	C345.262756,265.198090 336.479553,255.558670 327.495880,246.109665 
	C325.559631,244.073120 323.023712,242.606705 320.002319,240.294830 
	C320.002319,247.612091 320.002319,254.027954 320.002319,260.932434 
M320.748352,199.059021 
	C320.388947,205.900314 320.029541,212.741623 319.648071,220.002808 
	C329.149170,220.002808 337.934631,219.813461 346.706543,220.076370 
	C351.685638,220.225601 356.004822,219.671356 357.373016,214.081604 
	C358.097809,211.120285 359.020782,207.663483 358.148041,204.986679 
	C356.935028,201.266159 353.972412,198.745590 349.186584,198.910431 
	C340.039337,199.225479 330.873627,199.004623 320.748352,199.059021 
z"/>
<path fill="#FEFEFE" opacity="1.000000" stroke="none" 
	d="
M78.711166,276.997742 
	C73.179779,271.935394 68.009338,266.944641 62.996708,261.800110 
	C56.329548,254.957535 49.798595,247.982269 43.146278,241.125000 
	C42.837765,240.806976 41.915638,241.084213 40.538322,241.084213 
	C40.538322,252.665573 40.538322,264.038147 40.538322,275.984528 
	C32.724525,275.984528 25.630419,276.106720 18.551805,275.831085 
	C17.659142,275.796326 16.199661,273.715240 16.115767,272.505066 
	C15.817712,268.205597 16.002487,263.872742 16.002468,259.552551 
	C16.002356,235.411591 15.993219,211.270630 16.014896,187.129684 
	C16.016958,184.833145 15.914864,182.464050 16.453270,180.274246 
	C16.685707,179.328888 18.421625,178.114151 19.482431,178.106445 
	C38.128090,177.971085 56.864216,176.864334 75.396828,178.315964 
	C94.450424,179.808380 106.305550,194.134644 103.229713,214.664413 
	C100.939445,229.950897 91.040451,236.324799 77.823944,240.009552 
	C76.627266,240.343185 75.472328,240.826538 73.896675,241.381790 
	C79.627548,247.117569 85.148674,252.670578 90.700699,258.192505 
	C96.221527,263.683411 101.773399,269.143127 107.162003,275.462860 
	C97.814041,277.541473 88.444107,276.802826 78.711166,276.997742 
M39.319298,215.109314 
	C36.503231,220.472290 37.737804,222.961197 43.323994,222.991531 
	C51.960056,223.038437 60.596767,222.970490 69.232765,223.023026 
	C71.481812,223.036713 73.301376,222.808060 73.252983,219.226883 
	C79.936325,217.595810 80.617691,211.819473 79.884048,206.477097 
	C79.232498,201.732498 75.508064,199.220428 70.983398,199.091721 
	C60.781136,198.801483 50.564953,199.000580 40.821457,199.000580 
	C40.566452,204.582504 40.330364,209.750336 39.319298,215.109314 
z"/>
<path fill="#FDFDFD" opacity="1.000000" stroke="none" 
	d="
M470.190247,271.307434 
	C454.934235,279.791687 439.267761,280.496399 423.396698,274.949036 
	C411.606812,270.828217 402.957886,262.793427 398.051636,251.176605 
	C390.037354,232.200729 390.349487,213.521194 402.104553,196.204727 
	C410.798126,183.398132 423.457184,176.613785 439.118073,176.011398 
	C449.968323,175.594055 460.353394,176.795090 469.901550,182.904312 
	C482.114380,190.718460 489.262604,201.735840 491.941650,215.696274 
	C494.558105,229.330322 492.922455,242.374466 486.125153,254.801254 
	C482.309692,261.776642 476.917816,266.825745 470.190247,271.307434 
M433.574615,257.373169 
	C434.104279,257.971863 434.632690,259.088196 435.163788,259.089478 
	C440.701324,259.102966 446.241211,258.980316 451.773407,258.737000 
	C452.199646,258.718231 452.573151,257.500244 453.245667,256.205811 
	C456.834534,252.831467 461.463776,250.049057 463.791779,245.957352 
	C468.381378,237.890701 468.885345,228.913284 467.106476,219.620621 
	C463.899567,202.868042 457.323853,197.087433 440.594177,196.934814 
	C430.852203,196.845947 421.539551,204.864639 419.269745,212.581375 
	C417.461426,218.729065 418.414520,225.660461 417.908905,232.226028 
	C416.948730,244.694412 424.280670,251.620728 433.574615,257.373169 
z"/>
<path fill="#FEFEFE" opacity="1.000000" stroke="none" 
	d="
M254.000549,217.000854 
	C254.000458,235.332550 253.906311,253.165268 254.065445,270.995728 
	C254.106064,275.547394 252.377823,277.300751 247.899353,277.049500 
	C243.746078,276.816528 239.542130,276.700378 235.410446,277.078430 
	C230.801239,277.500214 229.885818,275.590698 229.931778,271.349915 
	C230.137299,252.379623 230.009628,233.405746 230.003204,214.433151 
	C230.001419,209.139313 230.002930,203.845474 230.002930,198.949234 
	C221.623520,198.949234 213.435501,198.545715 205.312073,199.095963 
	C200.189163,199.442963 198.854218,198.791046 198.980209,193.319992 
	C199.085114,188.764404 199.001709,184.204498 199.001709,178.210861 
	C200.452454,178.158936 202.872253,178.152115 205.278305,177.966736 
	C208.531143,177.716095 211.772018,177.061081 215.020477,177.043884 
	C232.685211,176.950424 250.351028,176.940536 268.015747,177.034927 
	C273.548248,177.064468 279.078583,177.507385 284.498596,177.755981 
	C284.996338,184.096649 285.536255,189.958450 285.809906,195.832672 
	C285.841675,196.515167 284.434875,197.846832 283.633209,197.897354 
	C273.959412,198.507065 264.273987,198.932175 254.000580,199.434296 
	C254.000580,204.400986 254.000580,210.451004 254.000549,217.000854 
z"/>
<path fill="#FEFFFE" opacity="1.000000" stroke="none" 
	d="
M128.006348,178.007172 
	C146.641068,178.004120 164.778076,178.085892 182.913223,177.938095 
	C187.296539,177.902374 189.057098,178.463577 188.240860,183.803024 
	C187.246597,190.306839 187.937286,197.078827 188.024338,203.733170 
	C188.072144,207.388382 187.802887,209.310074 182.874969,208.263611 
	C178.167236,207.263885 173.026550,208.463058 168.094391,208.257782 
	C166.700775,208.199799 164.518738,206.835968 164.201233,205.663910 
	C163.651779,203.635635 164.276535,201.289276 164.418518,198.912933 
	C147.764008,198.912933 131.152451,198.912933 114.271805,198.912933 
	C114.271805,192.024155 114.271805,185.293030 114.271805,178.007660 
	C118.647232,178.007660 123.077591,178.007660 128.006348,178.007172 
z"/>
<path fill="#FEFEFE" opacity="1.000000" stroke="none" 
	d="
M187.997925,269.800415 
	C187.988556,276.308594 186.177628,277.797333 180.089828,276.996643 
	C176.711960,276.552368 173.307800,276.057678 169.912735,276.036896 
	C153.765457,275.937958 137.617218,275.988586 121.469330,275.997345 
	C114.004105,276.001404 114.003738,276.013184 114.001991,268.268219 
	C114.001099,264.313507 114.001831,260.358795 114.001831,256.035217 
	C131.105118,256.035217 147.837097,256.035217 164.382019,256.035217 
	C164.699539,255.380096 164.943222,255.107178 164.951202,254.827545 
	C165.229065,245.067535 163.276611,246.022049 174.202164,246.004486 
	C188.000931,245.982315 188.001175,245.998917 188.001022,259.840515 
	C188.000992,263.003510 187.998993,266.166504 187.997925,269.800415 
z"/>
<path fill="#0BB5F5" opacity="1.000000" stroke="none" 
	d="
M148.957092,223.039581 
	C148.956406,229.445129 148.956406,235.358932 148.956406,242.606003 
	C144.278854,239.950272 140.744888,237.950485 137.217407,235.939316 
	C133.129028,233.608353 129.035904,231.285355 124.964951,228.924225 
	C122.373444,227.421173 122.192596,225.590149 124.811783,224.090302 
	C130.867462,220.622635 136.990753,217.265656 143.182587,214.048447 
	C144.689804,213.265320 146.567627,213.195450 148.957794,212.638535 
	C148.957794,216.337448 148.957794,219.442642 148.957092,223.039581 
z"/>
<path fill="#EEEEEE" opacity="1.000000" stroke="none" 
	d="
M40.854942,215.980209 
	C40.949631,217.124985 41.044319,218.269760 41.185730,219.979385 
	C51.423534,219.979385 61.722725,219.979385 72.484627,219.926910 
	C73.301376,222.808060 71.481812,223.036713 69.232765,223.023026 
	C60.596767,222.970490 51.960056,223.038437 43.323994,222.991531 
	C37.737804,222.961197 36.503231,220.472290 39.706787,215.013733 
	C40.094276,214.918152 40.032486,214.943268 40.117729,215.136383 
	C40.328449,215.638428 40.545773,215.855331 40.854942,215.980209 
z"/>
<path fill="#E6E6E6" opacity="1.000000" stroke="none" 
	d="
M433.841187,257.169922 
	C438.488281,257.079498 442.868317,257.233337 447.249573,257.283844 
	C448.875366,257.302612 450.503998,257.079041 452.551239,256.902832 
	C452.573151,257.500244 452.199646,258.718231 451.773407,258.737000 
	C446.241211,258.980316 440.701324,259.102966 435.163788,259.089478 
	C434.632690,259.088196 434.104279,257.971863 433.841187,257.169922 
z"/>
<path fill="#FEFEFE" opacity="1.000000" stroke="none" 
	d="
M40.893696,215.714401 
	C40.545773,215.855331 40.328449,215.638428 40.129944,215.105347 
	C40.348763,215.070328 40.640606,215.259460 40.893696,215.714401 
z"/>
</svg>
